P2
80 80
255
0 0 0 0 0 0 0 0 0 0 0 0 0 0 0 0 0 0 0 0 0 0 0 0 0 0 
0 0 0 0 0 0 0 0 0 0 0 0 0 0 0 0 0 0 0 0 0 0 0 0 0 0 
0 0 0 0 0 0 0 0 0 0 0 0 0 0 0 0 0 0 0 0 0 0 0 0 0 0 
0 0 
0 0 0 0 0 0 0 0 0 0 0 0 0 0 0 0 0 0 0 0 0 0 0 0 0 0 
0 0 0 0 0 0 0 0 0 0 0 0 0 0 0 0 0 0 0 0 0 0 0 0 0 0 
0 0 0 0 0 0 0 0 0 0 0 0 0 0 0 0 0 0 0 0 0 0 0 0 0 0 
0 0 
0 0 0 0 0 0 0 0 0 0 0 0 0 0 0 0 0 0 0 0 0 0 0 0 0 0 
0 0 0 0 0 0 0 0 0 0 0 0 0 0 0 0 0 0 0 0 0 0 0 0 0 0 
0 0 0 0 0 0 0 0 0 0 0 0 0 0 0 0 0 0 0 0 0 0 0 0 0 0 
0 0 
0 0 0 0 0 0 0 0 0 0 0 0 0 0 0 0 0 0 0 0 0 0 0 0 0 0 
0 0 0 0 0 0 0 0 0 0 0 0 0 0 0 0 0 0 0 0 0 0 0 0 0 0 
0 0 0 0 0 0 0 0 0 0 0 0 0 0 0 0 0 0 0 0 0 0 0 0 0 0 
0 0 
0 0 0 0 0 0 0 0 0 0 0 0 0 0 0 0 0 0 0 0 0 0 0 0 0 0 
0 0 0 0 0 0 0 0 0 0 0 0 0 0 0 0 0 0 0 0 0 0 0 0 0 0 
0 0 0 0 0 0 0 0 0 0 0 0 0 0 0 0 0 0 0 0 0 0 0 0 0 0 
0 0 
0 0 0 0 0 0 0 0 0 0 0 0 0 0 0 0 0 0 0 0 0 0 0 0 0 0 
0 0 0 0 0 0 0 0 0 0 0 0 0 0 0 0 0 0 0 0 0 0 0 0 0 0 
0 0 0 0 0 0 0 0 0 0 0 0 0 0 0 0 0 0 0 0 0 0 0 0 0 0 
0 0 
0 0 0 0 0 0 0 0 0 0 0 0 0 0 0 0 0 0 0 0 0 0 0 0 0 0 
0 0 0 0 0 0 0 0 0 0 0 0 0 0 0 0 0 0 0 0 0 0 0 0 0 0 
0 0 0 0 0 0 0 0 0 0 0 0 0 0 0 0 0 0 0 0 0 0 0 0 0 0 
0 0 
0 0 0 0 0 0 0 0 0 0 0 0 0 0 0 0 0 0 0 0 0 0 0 0 0 0 
0 0 0 0 0 0 0 0 0 0 0 0 0 0 0 0 0 0 0 0 0 0 0 0 0 0 
0 0 0 0 0 0 0 0 0 0 0 0 0 0 0 0 0 0 0 0 0 0 0 0 0 0 
0 0 
0 0 0 0 0 0 0 0 0 0 0 0 0 0 0 0 0 0 0 0 0 0 0 0 0 0 
0 0 0 0 0 0 0 0 0 0 0 0 0 0 0 0 0 0 0 0 0 0 0 0 0 0 
0 0 0 0 0 0 0 0 0 0 0 0 0 0 0 0 0 0 0 0 0 0 0 0 0 0 
0 0 
0 0 0 0 0 0 0 0 0 0 0 0 0 0 0 0 0 0 0 0 0 0 0 0 0 0 
0 0 0 0 0 0 0 0 0 0 0 0 0 0 0 0 0 0 0 0 0 0 0 0 0 0 
0 0 0 0 0 0 0 0 0 0 0 0 0 0 0 0 0 0 0 0 0 0 0 0 0 0 
0 0 
0 0 0 0 0 0 0 0 0 0 0 0 0 0 0 0 0 0 0 0 0 0 0 0 0 0 
0 0 0 0 0 0 0 0 0 0 0 0 0 0 0 0 0 0 0 0 0 0 0 0 0 0 
0 0 0 0 0 0 0 0 0 0 0 0 0 0 0 0 0 0 0 0 0 0 0 0 0 0 
0 0 
0 0 0 0 0 0 0 0 0 0 0 0 0 0 0 0 0 0 0 0 0 0 0 0 0 0 
0 0 0 0 0 0 0 0 0 0 0 0 0 0 0 0 0 0 0 0 0 0 0 0 0 0 
0 0 0 0 0 0 0 0 0 0 0 0 0 0 0 0 0 0 0 0 0 0 0 0 0 0 
0 0 
0 0 0 0 0 0 0 0 0 0 0 0 0 0 0 0 0 0 0 0 0 0 0 0 0 0 
0 0 0 0 0 0 0 0 0 0 0 0 0 0 0 0 0 0 0 0 0 0 0 0 0 0 
0 0 0 0 0 0 0 0 0 0 0 0 0 0 0 0 0 0 0 0 0 0 0 0 0 0 
0 0 
0 0 0 0 0 0 0 0 0 0 0 0 0 0 0 0 0 0 0 0 0 0 0 0 0 0 
0 0 0 0 0 0 0 0 0 0 0 0 0 0 0 0 0 0 0 0 0 0 0 0 0 0 
0 0 0 0 0 0 0 0 0 0 0 0 0 0 0 0 0 0 0 0 0 0 0 0 0 0 
0 0 
0 0 0 0 0 0 0 0 0 0 0 0 0 0 0 0 0 0 0 0 0 0 0 0 0 0 
0 0 0 0 0 0 0 0 0 0 0 0 0 0 0 0 0 0 0 0 0 0 0 0 0 0 
0 0 0 0 0 0 0 0 0 0 0 0 0 0 0 0 0 0 16 184 209 125 0 0 0 0 
0 0 
0 0 0 0 0 0 0 0 0 0 0 0 0 0 197 250 36 0 0 0 0 0 0 0 0 0 
0 0 0 0 0 0 0 0 0 0 0 0 0 0 0 0 0 0 0 0 0 0 0 0 0 0 
0 0 0 0 0 0 0 0 0 0 0 0 0 0 0 0 0 141 255 255 234 88 0 0 0 0 
0 0 
0 0 0 0 0 0 0 0 0 0 0 0 88 250 255 255 141 0 0 0 0 0 0 0 0 0 
0 0 0 0 0 0 0 0 0 0 0 0 0 0 0 0 0 0 0 0 0 0 0 0 0 0 
0 0 0 0 0 0 0 0 0 0 0 0 0 0 0 0 221 255 255 255 170 16 0 0 0 0 
0 0 
0 0 0 0 0 0 0 0 0 0 16 221 255 255 255 255 221 0 0 0 0 0 0 0 0 0 
0 0 0 0 0 0 0 0 0 0 0 0 0 0 0 0 0 0 0 0 0 0 0 0 0 0 
0 0 0 0 0 0 0 0 0 0 0 0 0 0 0 221 255 255 255 255 68 0 0 0 0 0 
0 0 
0 0 0 0 0 0 0 0 36 125 255 255 255 255 255 255 255 36 0 0 0 0 0 0 0 0 
0 0 0 0 0 0 0 0 0 0 0 0 0 0 0 0 0 0 0 0 0 0 0 0 0 0 
0 0 0 0 0 0 0 0 0 36 156 156 36 0 197 255 255 255 255 234 0 0 0 0 0 0 
0 0 
0 0 0 0 0 0 0 0 88 221 255 255 255 255 255 255 255 170 0 0 0 0 0 0 0 0 
0 0 0 0 0 0 0 0 0 0 0 0 0 0 0 0 0 0 0 0 0 0 0 0 0 0 
0 0 0 0 0 0 0 0 197 255 255 255 0 68 255 255 255 255 255 170 0 0 0 0 0 0 
0 0 
0 0 0 0 0 0 0 0 0 16 250 255 255 255 255 255 255 245 0 0 0 0 0 0 0 0 
0 0 0 0 0 0 0 0 0 0 0 0 0 0 0 0 0 0 0 0 0 0 0 0 0 0 
0 0 0 0 0 0 0 234 255 255 255 221 0 234 255 255 255 255 255 59 0 0 0 0 0 0 
0 0 
0 0 0 0 0 0 0 0 0 0 88 255 255 255 255 255 255 255 105 0 0 0 0 0 0 0 
0 0 0 0 0 0 0 0 0 0 0 0 0 0 0 0 0 0 0 0 0 0 0 0 0 0 
0 0 0 0 0 0 245 255 255 255 255 68 36 255 255 255 255 255 234 0 0 0 0 0 0 0 
0 0 
0 0 0 0 0 0 0 0 0 0 0 141 255 255 255 255 255 255 197 0 0 0 0 0 0 0 
0 0 0 0 0 0 0 0 0 0 0 0 0 0 0 0 0 0 0 0 0 0 0 0 0 0 
0 0 0 0 0 209 255 255 255 255 245 0 197 255 255 255 255 255 141 0 0 0 0 0 0 0 
0 0 
0 0 0 0 0 0 0 0 0 0 0 0 197 255 255 255 255 255 255 36 0 0 0 0 0 0 
0 0 0 0 0 0 0 0 0 0 0 0 0 0 0 0 0 0 0 0 0 0 0 0 0 0 
0 0 0 0 125 255 255 255 255 255 141 0 255 255 255 255 255 250 0 0 0 0 0 0 0 0 
0 0 
0 0 0 0 0 0 0 0 0 0 0 0 0 234 255 255 255 255 255 170 0 0 0 0 0 0 
0 0 0 0 0 0 0 0 0 0 0 0 0 0 0 0 0 0 0 0 0 0 0 0 0 0 
0 0 0 16 250 255 255 255 255 255 0 141 255 255 255 255 255 209 0 0 0 0 0 0 0 0 
0 0 
0 0 0 0 0 0 0 0 0 0 0 0 0 0 250 255 255 255 255 250 16 0 0 0 0 0 
0 0 0 0 0 0 0 0 0 0 0 0 0 0 0 0 0 0 0 0 0 0 0 0 0 0 
0 0 0 184 255 255 255 255 255 209 0 245 255 255 255 255 255 88 0 0 0 0 0 0 0 0 
0 0 
0 0 0 0 0 0 0 0 0 0 0 0 0 0 68 255 255 255 255 255 141 0 0 0 0 0 
0 0 0 0 0 0 0 0 0 0 0 0 0 0 0 0 0 0 0 0 0 0 0 0 0 0 
0 0 36 255 255 255 255 255 255 36 88 255 255 255 255 255 245 0 0 0 0 0 0 0 0 0 
0 0 
0 0 0 0 0 0 0 0 0 0 0 0 0 0 0 125 255 255 255 255 234 0 0 0 0 0 
0 0 0 0 0 0 0 0 0 0 0 0 0 0 0 0 0 0 0 0 0 0 0 0 0 0 
16 0 197 255 255 255 255 255 234 0 221 255 255 255 255 255 156 0 0 0 0 0 0 0 0 0 
0 0 
0 0 0 0 0 0 0 0 0 0 0 0 0 0 0 0 197 255 255 255 255 125 0 0 0 0 
0 0 0 0 0 0 0 0 0 0 0 0 0 0 0 0 0 0 0 0 0 0 0 68 197 245 
141 0 250 255 255 255 255 255 125 36 255 255 255 255 255 255 16 0 0 0 0 0 0 0 0 0 
0 0 
0 0 0 0 0 0 0 0 0 0 0 0 0 0 0 0 0 234 255 255 255 245 0 0 0 0 
0 0 0 0 0 0 0 0 0 0 0 0 0 0 0 0 0 0 0 0 0 0 184 255 255 255 
36 125 255 255 255 255 255 250 0 197 255 255 255 255 255 197 0 0 0 0 0 0 0 0 0 0 
0 0 
0 0 0 0 0 0 0 0 0 0 0 0 0 0 0 0 0 0 245 255 255 255 141 0 0 0 
0 0 0 0 0 0 0 0 0 0 0 0 0 0 0 0 0 0 0 0 0 197 255 255 255 234 
0 234 255 255 255 255 255 184 0 255 255 255 255 255 255 68 0 0 0 0 0 0 0 0 0 0 
0 0 
0 0 0 0 0 0 0 0 0 0 0 0 0 0 0 0 0 0 68 255 255 255 245 0 0 0 
0 0 0 0 0 0 0 0 0 0 0 0 0 0 0 0 0 0 0 0 125 255 255 255 255 125 
0 255 255 255 255 255 255 16 141 255 255 255 255 255 221 0 0 0 0 0 0 0 0 0 0 0 
0 0 
0 0 0 0 0 0 0 0 0 0 0 0 0 0 0 0 0 0 0 125 255 255 255 170 0 0 
0 0 0 0 0 0 0 0 0 0 0 0 0 0 0 0 0 0 0 0 245 255 255 255 255 0 
156 255 255 255 255 255 221 0 245 255 255 255 255 255 105 0 0 0 0 0 0 0 0 0 0 0 
0 0 
0 0 0 0 0 0 0 0 0 0 0 0 0 0 0 0 0 0 0 0 184 255 255 255 16 0 
0 0 0 0 0 0 0 0 0 0 0 0 0 0 0 0 0 0 0 141 255 255 255 255 234 0 
245 255 255 255 255 255 36 68 255 255 255 255 255 245 0 0 0 0 0 0 0 0 0 0 0 0 
0 0 
0 0 0 0 0 0 0 0 0 0 0 0 0 0 0 0 0 0 0 0 0 221 255 255 209 0 
0 0 0 0 0 0 0 0 0 0 0 0 0 0 0 0 0 0 0 234 255 255 255 255 125 16 
255 255 255 255 255 234 0 221 255 255 255 255 255 141 0 0 0 0 0 0 0 0 0 0 0 0 
0 0 
0 0 0 0 0 0 0 0 0 0 0 0 0 0 0 0 0 0 0 0 0 16 245 255 255 68 
0 0 0 0 0 0 0 0 0 0 0 0 0 0 0 0 0 0 105 255 255 255 255 255 0 197 
255 255 255 255 255 105 0 255 255 255 255 255 245 0 0 0 0 0 0 0 0 0 0 0 0 0 
0 0 
0 0 0 0 0 0 0 0 0 0 0 0 0 0 0 0 0 0 0 0 0 0 59 255 255 245 
0 0 0 0 0 0 0 0 0 0 0 0 0 0 0 0 0 0 234 255 255 255 255 197 0 255 
255 255 255 255 250 0 184 255 255 255 255 255 141 0 0 0 0 0 0 0 0 0 0 0 0 0 
0 0 
0 0 0 0 0 0 0 0 0 0 0 0 0 0 0 0 0 0 0 0 0 0 0 125 255 255 
184 0 0 0 0 0 0 0 0 0 0 0 0 0 0 0 0 88 255 255 255 255 255 36 141 255 
255 255 255 255 141 0 255 255 255 255 255 245 0 0 0 0 0 0 0 0 0 0 0 0 0 0 
0 0 
0 0 0 0 0 0 0 0 0 0 0 0 0 0 0 0 0 0 0 0 0 0 0 0 184 255 
255 88 0 0 0 0 0 0 0 0 0 0 0 0 0 0 0 234 255 255 255 255 234 16 250 255 
255 255 255 250 0 170 255 255 255 255 255 141 0 0 0 0 0 0 0 0 0 0 0 0 0 0 
0 0 
0 0 0 0 0 0 0 0 0 0 0 0 0 0 0 0 0 0 0 0 0 0 0 0 0 221 
255 250 16 0 0 0 0 0 0 0 0 0 0 0 0 0 68 255 255 255 255 255 88 141 255 255 
255 255 255 170 0 250 255 255 255 255 234 0 0 0 0 0 0 0 0 0 0 0 0 0 0 0 
0 0 
0 0 0 0 0 0 0 0 0 0 0 0 0 0 0 0 0 0 0 0 0 0 0 0 0 0 
245 255 234 0 0 0 0 0 0 0 0 0 0 0 0 0 221 255 255 255 255 234 0 245 255 255 
255 255 255 0 125 255 255 255 255 255 105 0 0 0 0 0 0 0 0 0 0 0 0 0 0 0 
0 0 
0 0 0 0 0 0 0 0 0 0 0 0 0 0 0 0 0 0 0 0 0 0 0 0 0 0 
59 255 255 184 0 0 0 0 0 0 0 0 0 0 0 88 255 255 255 255 255 68 125 255 255 255 
255 255 156 0 245 255 255 255 255 209 0 0 0 0 0 0 0 0 0 0 0 0 0 0 0 0 
0 0 
0 0 0 0 0 0 0 0 0 0 0 0 0 0 0 0 0 0 0 0 0 0 0 0 0 0 
0 125 255 255 170 0 0 0 0 0 0 0 0 0 0 245 255 255 255 255 221 16 255 255 255 255 
255 245 0 141 255 255 255 255 255 36 0 0 0 0 0 0 0 0 0 0 0 0 0 0 0 0 
0 0 
0 0 0 0 0 0 0 0 0 0 0 0 0 0 0 0 0 0 0 0 0 0 0 0 0 0 
0 0 170 255 255 141 0 0 0 0 0 0 0 0 170 255 255 255 255 255 16 184 255 255 255 255 
255 125 0 250 255 255 255 255 156 0 0 0 0 0 0 0 0 0 0 0 0 0 0 0 0 0 
0 0 
0 0 0 0 0 0 0 0 0 0 0 0 0 0 0 0 0 0 0 0 0 0 0 0 0 0 
0 0 0 221 255 255 141 0 0 0 0 0 0 156 255 255 255 255 255 125 16 255 255 255 255 255 
245 0 156 255 255 255 255 234 0 0 0 0 0 0 0 0 0 0 0 0 0 0 0 0 0 0 
0 0 
0 0 0 0 0 0 0 0 0 0 0 0 0 0 0 0 0 0 0 0 0 0 0 0 0 0 
0 0 0 0 234 255 255 221 59 0 0 68 221 255 255 255 255 255 234 0 245 255 255 255 255 255 
88 0 255 255 255 255 255 36 0 0 0 0 0 0 0 0 0 0 0 0 0 0 0 0 0 0 
0 0 
0 0 0 0 0 0 0 0 0 0 0 0 0 0 0 0 0 0 0 0 0 0 0 0 0 0 
0 0 0 0 16 234 255 255 255 250 250 255 255 255 255 255 255 255 0 184 255 255 255 255 255 221 
0 221 255 255 255 255 105 0 0 0 0 0 0 0 0 0 0 0 0 0 0 0 0 0 0 0 
0 0 
0 0 0 0 0 0 0 0 0 0 0 0 0 0 0 0 0 0 0 0 0 0 0 0 0 0 
0 0 0 0 0 0 184 255 255 255 255 255 255 255 255 255 255 0 105 255 255 255 255 255 255 0 
88 255 255 255 255 170 0 0 0 0 0 0 0 0 0 0 0 0 0 0 0 0 0 0 0 0 
0 0 
0 0 0 0 0 0 0 0 0 0 0 0 0 0 0 0 0 0 0 0 0 0 0 0 0 0 
0 0 0 0 0 0 0 59 221 255 255 255 255 255 255 221 0 88 255 255 255 255 255 255 88 0 
255 255 255 255 209 0 0 0 0 0 0 0 0 0 0 0 0 0 0 0 0 0 0 0 0 0 
0 0 
0 0 0 0 0 0 0 0 0 0 0 0 0 0 0 0 0 0 0 0 0 0 0 0 0 0 
0 0 0 0 0 0 0 0 0 16 105 170 170 125 36 0 105 255 255 255 255 255 255 156 0 234 
255 255 255 209 0 0 0 0 0 0 0 0 0 0 0 0 0 0 0 0 0 0 0 0 0 0 
0 0 
0 0 0 0 0 0 0 0 0 0 0 0 0 0 0 0 0 0 0 0 0 0 0 0 0 0 
0 0 0 0 0 0 0 0 0 0 0 0 0 0 0 156 255 255 255 255 255 255 184 0 209 255 
255 255 184 0 0 0 0 0 0 0 0 0 0 0 0 0 0 0 0 0 0 0 0 0 0 0 
0 0 
0 0 0 0 0 0 0 0 0 0 0 0 0 0 0 0 0 0 0 0 0 0 0 0 0 0 
0 0 0 0 0 0 0 0 0 0 0 0 0 0 0 184 255 255 255 255 255 125 0 221 255 255 
250 68 0 0 0 0 0 0 0 0 0 0 0 0 0 0 0 0 0 0 0 0 0 0 0 0 
0 0 
0 0 0 0 0 0 0 0 0 0 0 0 0 0 0 0 0 0 0 0 0 0 0 0 0 0 
0 0 0 0 0 0 0 0 0 0 0 0 0 0 0 0 105 221 221 184 36 0 68 234 234 125 
0 0 0 0 0 0 0 0 0 0 0 0 0 0 0 0 0 0 0 0 0 0 0 0 0 0 
0 0 
0 0 0 0 0 0 0 0 0 0 0 0 0 0 0 0 0 0 0 0 0 0 0 0 0 0 
0 0 0 0 0 0 0 0 0 0 0 0 0 0 0 0 0 0 0 0 0 0 0 0 0 0 
0 0 0 0 0 0 0 0 0 0 0 0 0 0 0 0 0 0 0 0 0 0 0 0 0 0 
0 0 
0 0 0 0 0 0 0 0 0 0 0 0 0 0 0 0 0 0 0 0 0 0 0 0 0 0 
0 0 0 0 0 0 0 0 0 0 0 0 0 0 0 0 0 0 0 0 0 0 0 0 0 0 
0 0 0 0 0 0 0 0 0 0 0 0 0 0 0 0 0 0 0 0 0 0 0 0 0 0 
0 0 
0 0 0 0 0 0 0 0 0 0 0 0 0 0 0 0 0 0 0 0 0 0 0 0 0 0 
0 0 0 0 0 0 0 0 0 0 0 0 0 0 0 0 0 0 0 0 0 0 0 0 0 0 
0 0 0 0 0 0 0 0 0 0 0 0 0 0 0 0 0 0 0 0 0 0 0 0 0 0 
0 0 
0 0 0 0 0 0 0 0 0 0 0 0 0 0 0 0 0 0 0 0 0 0 0 0 0 0 
0 0 0 0 0 0 0 0 0 0 0 0 0 0 0 0 0 0 0 0 0 0 0 0 0 0 
0 0 0 0 0 0 0 0 0 0 0 0 0 0 0 0 0 0 0 0 0 0 0 0 0 0 
0 0 
0 0 0 0 0 0 0 0 0 0 0 0 0 0 0 0 0 0 0 0 0 0 0 0 0 0 
0 0 0 0 0 0 0 0 0 0 0 0 0 0 0 0 0 0 0 0 0 0 0 0 0 0 
0 0 0 0 0 0 0 0 0 0 0 0 0 0 0 0 0 0 0 0 0 0 0 0 0 0 
0 0 
0 0 0 0 0 0 0 0 0 0 0 0 0 0 0 0 0 0 0 0 0 0 0 0 0 0 
0 0 0 0 0 0 0 0 0 0 0 0 0 0 0 0 0 0 0 0 0 0 0 0 0 0 
0 0 0 0 0 0 0 0 0 0 0 0 0 0 0 0 0 0 0 0 0 0 0 0 0 0 
0 0 
0 0 0 0 0 0 0 0 0 0 0 0 0 0 0 0 0 0 0 0 0 0 0 0 0 0 
0 0 0 0 0 0 0 0 0 0 0 0 0 0 0 0 0 0 0 0 0 0 0 0 0 0 
0 0 0 0 0 0 0 0 0 0 0 0 0 0 0 0 0 0 0 0 0 0 0 0 0 0 
0 0 
0 0 0 0 0 0 0 0 0 0 0 0 0 0 0 0 0 0 0 0 0 0 0 0 0 0 
0 0 0 0 0 0 0 0 0 0 0 0 0 0 0 0 0 0 0 0 0 0 0 0 0 0 
0 0 0 0 0 0 0 0 0 0 0 0 0 0 0 0 0 0 0 0 0 0 0 0 0 0 
0 0 
0 0 0 0 0 0 0 0 0 0 0 0 0 0 0 0 0 88 0 0 0 0 88 0 88 0 
0 0 36 88 0 0 0 36 36 0 0 0 88 0 0 0 0 88 0 0 0 36 88 88 36 0 
0 0 0 36 68 0 0 0 68 0 0 0 68 36 0 0 0 0 0 0 0 0 0 0 0 0 
0 0 
0 0 0 0 0 0 0 0 0 0 0 0 0 0 0 0 125 255 105 0 0 170 245 88 255 88 
0 156 245 255 245 125 0 197 197 0 0 88 255 88 0 0 184 255 105 0 0 197 255 255 245 197 
0 0 0 234 245 0 0 0 245 156 0 125 245 141 0 0 0 0 0 0 0 0 0 0 0 0 
0 0 
0 0 0 0 0 0 0 0 0 0 0 0 0 0 0 0 0 234 170 0 0 234 170 88 255 88 
156 245 141 88 156 245 88 197 197 0 0 88 255 88 0 0 245 245 184 0 0 197 197 88 105 245 
141 0 105 245 245 141 0 0 245 156 68 234 170 0 0 0 0 0 0 0 0 0 0 0 0 0 
0 0 
0 0 0 0 0 0 0 0 0 0 0 0 0 0 0 0 0 170 234 0 105 255 105 88 255 88 
221 184 0 0 0 141 68 197 197 88 88 125 255 88 0 125 245 156 245 0 0 197 197 0 0 245 
156 0 170 221 197 209 0 0 245 156 234 170 0 0 0 0 0 0 0 0 0 0 0 0 0 0 
0 0 
0 0 0 0 0 0 0 0 0 0 0 0 0 0 0 0 0 105 255 105 170 234 0 88 255 88 
245 156 0 0 0 0 0 197 255 255 255 255 255 88 0 197 209 36 245 125 0 197 234 197 221 245 
88 0 234 156 125 245 36 0 245 245 255 105 0 0 0 0 0 0 0 0 0 0 0 0 0 0 
0 0 
0 0 0 0 0 0 0 0 0 0 0 0 0 0 0 0 0 0 234 170 234 156 0 88 255 88 
221 184 0 0 0 141 68 197 197 88 88 125 255 88 36 245 245 245 245 209 0 197 234 197 245 156 
0 125 255 245 245 255 156 0 245 209 184 234 0 0 0 0 0 0 0 0 0 0 0 0 0 0 
0 0 
0 0 0 0 0 0 0 0 0 0 0 0 0 0 0 0 0 0 156 245 245 68 0 88 255 88 
156 245 125 0 141 245 88 197 197 0 0 88 255 88 141 245 156 156 170 245 36 197 197 0 170 234 
0 184 221 156 156 209 221 0 245 156 0 234 197 0 0 0 0 0 0 0 0 0 0 0 0 0 
0 0 
0 0 0 0 0 0 0 0 0 0 0 0 0 0 0 0 0 0 68 245 221 0 0 88 255 88 
0 170 245 245 245 156 0 197 197 0 0 88 255 88 221 209 0 0 36 245 156 197 197 0 36 245 
184 245 156 0 0 125 245 88 245 156 0 88 245 156 0 0 0 0 0 0 0 0 0 0 0 0 
0 0 
0 0 0 0 0 0 0 0 0 0 0 0 0 0 0 0 0 0 0 68 36 0 0 0 88 0 
0 0 68 88 36 0 0 36 36 0 0 0 88 0 68 36 0 0 0 68 36 36 36 0 0 68 
68 88 0 0 0 0 88 0 68 0 0 0 68 36 0 0 0 0 0 0 0 0 0 0 0 0 
0 0 
0 0 0 0 0 0 0 0 0 0 0 0 0 0 0 0 0 0 0 0 0 0 0 0 0 0 
0 0 0 0 0 0 0 0 0 0 0 0 0 0 0 0 0 0 0 0 0 0 0 0 0 0 
0 0 0 0 0 0 0 0 0 0 0 0 0 0 0 0 0 0 0 0 0 0 0 0 0 0 
0 0 
0 0 0 0 0 0 0 0 0 0 0 0 0 0 0 0 0 0 0 0 0 0 0 0 0 0 
0 0 0 0 0 0 0 0 0 0 0 0 0 0 0 0 0 0 0 0 0 0 0 0 0 0 
0 0 0 0 0 0 0 0 0 0 0 0 0 0 0 0 0 0 0 0 0 0 0 0 0 0 
0 0 
0 0 0 0 0 0 0 0 0 0 0 0 0 0 0 0 0 0 0 0 0 0 0 0 0 0 
0 0 0 0 0 0 0 0 0 0 0 0 0 0 0 0 0 0 0 0 0 0 0 0 0 0 
0 0 0 0 0 0 0 0 0 0 0 0 0 0 0 0 0 0 0 0 0 0 0 0 0 0 
0 0 
0 0 0 0 0 0 0 0 0 0 0 0 0 0 0 0 0 0 0 0 0 0 0 0 0 0 
0 0 0 0 0 0 0 0 0 0 0 0 0 0 0 0 0 0 0 0 0 0 0 0 0 0 
0 0 0 0 0 0 0 0 0 0 0 0 0 0 0 0 0 0 0 0 0 0 0 0 0 0 
0 0 
0 0 0 0 0 0 0 0 0 0 0 0 0 0 0 0 0 0 0 0 0 0 0 0 0 0 
0 0 0 0 0 0 0 0 0 0 0 0 0 0 0 0 0 0 0 0 0 0 0 0 0 0 
0 0 0 0 0 0 0 0 0 0 0 0 0 0 0 0 0 0 0 0 0 0 0 0 0 0 
0 0 
0 0 0 0 0 0 0 0 0 0 0 0 0 0 0 0 0 0 0 0 0 0 0 0 0 0 
0 0 0 0 0 0 0 0 0 0 0 0 0 0 0 0 0 0 0 0 0 0 0 0 0 0 
0 0 0 0 0 0 0 0 0 0 0 0 0 0 0 0 0 0 0 0 0 0 0 0 0 0 
0 0 
0 0 0 0 0 0 0 0 0 0 0 0 0 0 0 0 0 0 0 0 0 0 0 0 0 0 
0 0 0 0 0 0 0 0 0 0 0 0 0 0 0 0 0 0 0 0 0 0 0 0 0 0 
0 0 0 0 0 0 0 0 0 0 0 0 0 0 0 0 0 0 0 0 0 0 0 0 0 0 
0 0 
0 0 0 0 0 0 0 0 0 0 0 0 0 0 0 0 0 0 0 0 0 0 0 0 0 0 
0 0 0 0 0 0 0 0 0 0 0 0 0 0 0 0 0 0 0 0 0 0 0 0 0 0 
0 0 0 0 0 0 0 0 0 0 0 0 0 0 0 0 0 0 0 0 0 0 0 0 0 0 
0 0 
0 0 0 0 0 0 0 0 0 0 0 0 0 0 0 0 0 0 0 0 0 0 0 0 0 0 
0 0 0 0 0 0 0 0 0 0 0 0 0 0 0 0 0 0 0 0 0 0 0 0 0 0 
0 0 0 0 0 0 0 0 0 0 0 0 0 0 0 0 0 0 0 0 0 0 0 0 0 0 
0 0 
0 0 0 0 0 0 0 0 0 0 0 0 0 0 0 0 0 0 0 0 0 0 0 0 0 0 
0 0 0 0 0 0 0 0 0 0 0 0 0 0 0 0 0 0 0 0 0 0 0 0 0 0 
0 0 0 0 0 0 0 0 0 0 0 0 0 0 0 0 0 0 0 0 0 0 0 0 0 0 
0 0 
